<?xml version="1.0" standalone="no"?><!-- Generator: Gravit.io --><svg xmlns="http://www.w3.org/2000/svg" xmlns:xlink="http://www.w3.org/1999/xlink" style="isolation:isolate" viewBox="0 0 850.667 850.667" width="850.667" height="850.667"><defs><clipPath id="_clipPath_dPeC3rVYTUSMmylJDEAkpUASiCcFjnmX"><rect width="850.667" height="850.667"/></clipPath></defs><g clip-path="url(#_clipPath_dPeC3rVYTUSMmylJDEAkpUASiCcFjnmX)"><path d=" M 0 425.333 C 0 190.585 190.585 0 425.333 0 C 660.081 0 850.667 190.585 850.667 425.333 C 850.667 660.081 660.081 850.667 425.333 850.667 C 190.585 850.667 0 660.081 0 425.333 Z " fill="rgb(255,255,255)"/><path d=" M 657.87 306.493 C 651.497 306.498 645.134 306.883 638.807 307.643 C 621.632 251.717 570.041 213.497 511.54 213.377 C 496.977 213.362 482.518 215.781 468.757 220.521 C 434.689 146.853 353.951 106.817 274.695 124.289 C 195.43 141.765 139.015 212.03 139.073 293.189 C 139.078 307.216 140.826 321.186 144.255 334.775 C 68.74 346.305 14.787 413.984 20.401 490.169 C 26.004 566.36 89.286 625.418 165.675 625.756 L 657.87 625.756 C 746.033 625.756 817.499 554.284 817.499 466.122 C 817.499 377.959 746.033 306.493 657.87 306.493 L 657.87 306.493 Z  M 657.87 599.148 L 165.675 599.148 C 100.093 599.434 46.503 546.865 45.525 481.288 C 44.552 415.711 96.544 361.575 162.111 359.905 C 166.367 359.786 170.305 357.637 172.709 354.125 C 175.123 350.608 175.701 346.159 174.27 342.148 C 147.865 266.587 187.142 183.841 262.38 156.52 C 337.614 129.2 420.833 167.478 449.059 242.378 C 450.349 245.853 453.023 248.627 456.447 250.042 C 459.876 251.457 463.731 251.379 467.092 249.828 C 481.02 243.351 496.186 239.995 511.54 239.979 C 562.153 240.073 605.738 275.723 615.847 325.317 C 617.293 332.528 624.317 337.19 631.518 335.733 C 640.191 333.995 649.015 333.111 657.87 333.1 C 731.34 333.1 790.897 392.662 790.897 466.122 C 790.897 539.591 731.34 599.148 657.87 599.148 L 657.87 599.148 Z " fill="rgb(17,17,17)"/><path d=" M 366.985 328.039 L 470.514 328.039 L 470.514 265.922 L 594.749 348.745 L 470.514 431.569 L 470.514 369.451 L 366.985 369.451 C 321.432 369.451 284.161 406.722 284.161 452.275 C 284.161 497.827 321.432 535.098 366.985 535.098 L 470.514 535.098 L 470.514 576.51 L 366.985 576.51 C 298.655 576.51 242.749 520.604 242.749 452.275 C 242.749 383.945 298.655 328.039 366.985 328.039 Z " fill="rgb(17,17,17)"/></g></svg>